<?xml version="1.0" encoding="UTF-8" standalone="no"?>
<!DOCTYPE svg PUBLIC "-//W3C//DTD SVG 1.1//EN"
 "http://www.w3.org/Graphics/SVG/1.1/DTD/svg11.dtd">
<!-- Generated by graphviz version 12.1.1 (20240910.0053)
 -->
<!-- Title: INFRA Pages: 1 -->
<svg width="863pt" height="296pt"
 viewBox="0.00 0.00 863.27 296.00" xmlns="http://www.w3.org/2000/svg" xmlns:xlink="http://www.w3.org/1999/xlink">
<g id="graph0" class="graph" transform="scale(1 1) rotate(0) translate(4 292)">
<title>INFRA</title>
<polygon fill="white" stroke="none" points="-4,4 -4,-292 859.27,-292 859.27,4 -4,4"/>
<!-- ml&#45;autoscaling&#45;template -->
<g id="node1" class="node">
<title>ml&#45;autoscaling&#45;template</title>
<path fill="#b7e0ff" stroke="black" stroke-width="2" d="M220.71,-72C220.71,-72 40.41,-72 40.41,-72 34.41,-72 28.41,-66 28.41,-60 28.41,-60 28.41,-12 28.41,-12 28.41,-6 34.41,0 40.41,0 40.41,0 220.71,0 220.71,0 226.71,0 232.71,-6 232.71,-12 232.71,-12 232.71,-60 232.71,-60 232.71,-66 226.71,-72 220.71,-72"/>
<text text-anchor="middle" x="130.56" y="-40.2" font-family="Arial" font-size="14.00">ml&#45;autoscaling&#45;template</text>
<text text-anchor="middle" x="130.56" y="-23.4" font-family="Arial" font-size="14.00">(AWS::EC2::LaunchTemplate)</text>
</g>
<!-- ml&#45;predictive&#45;asg -->
<g id="node2" class="node">
<title>ml&#45;predictive&#45;asg</title>
<path fill="#b7e0ff" stroke="black" stroke-width="2" d="M249.12,-180C249.12,-180 12,-180 12,-180 6,-180 0,-174 0,-168 0,-168 0,-120 0,-120 0,-114 6,-108 12,-108 12,-108 249.12,-108 249.12,-108 255.12,-108 261.12,-114 261.12,-120 261.12,-120 261.12,-168 261.12,-168 261.12,-174 255.12,-180 249.12,-180"/>
<text text-anchor="middle" x="130.56" y="-148.2" font-family="Arial" font-size="14.00">ml&#45;predictive&#45;asg</text>
<text text-anchor="middle" x="130.56" y="-131.4" font-family="Arial" font-size="14.00">(AWS::AutoScaling::AutoScalingGroup)</text>
</g>
<!-- ml&#45;predictive&#45;asg&#45;&gt;ml&#45;autoscaling&#45;template -->
<g id="edge1" class="edge">
<title>ml&#45;predictive&#45;asg&#45;&gt;ml&#45;autoscaling&#45;template</title>
<path fill="none" stroke="black" d="M130.56,-107.7C130.56,-99.93 130.56,-91.57 130.56,-83.43"/>
<polygon fill="black" stroke="black" points="134.06,-83.66 130.56,-73.66 127.06,-83.66 134.06,-83.66"/>
</g>
<!-- ML&#45;ASG&#45;HighCPU -->
<g id="node3" class="node">
<title>ML&#45;ASG&#45;HighCPU</title>
<path fill="#e6e6e6" stroke="black" stroke-width="2" d="M211.35,-288C211.35,-288 49.77,-288 49.77,-288 43.77,-288 37.77,-282 37.77,-276 37.77,-276 37.77,-228 37.77,-228 37.77,-222 43.77,-216 49.77,-216 49.77,-216 211.35,-216 211.35,-216 217.35,-216 223.35,-222 223.35,-228 223.35,-228 223.35,-276 223.35,-276 223.35,-282 217.35,-288 211.35,-288"/>
<text text-anchor="middle" x="130.56" y="-256.2" font-family="Arial" font-size="14.00">ML&#45;ASG&#45;HighCPU</text>
<text text-anchor="middle" x="130.56" y="-239.4" font-family="Arial" font-size="14.00">(AWS::CloudWatch::Alarm)</text>
</g>
<!-- ML&#45;ASG&#45;HighCPU&#45;&gt;ml&#45;predictive&#45;asg -->
<g id="edge2" class="edge">
<title>ML&#45;ASG&#45;HighCPU&#45;&gt;ml&#45;predictive&#45;asg</title>
<path fill="none" stroke="black" d="M130.56,-215.7C130.56,-207.93 130.56,-199.57 130.56,-191.43"/>
<polygon fill="black" stroke="black" points="134.06,-191.66 130.56,-181.66 127.06,-191.66 134.06,-191.66"/>
</g>
<!-- ml&#45;autoscaling&#45;sg -->
<g id="node4" class="node">
<title>ml&#45;autoscaling&#45;sg</title>
<path fill="#e6e6e6" stroke="black" stroke-width="2" d="M419.3,-288C419.3,-288 253.81,-288 253.81,-288 247.81,-288 241.81,-282 241.81,-276 241.81,-276 241.81,-228 241.81,-228 241.81,-222 247.81,-216 253.81,-216 253.81,-216 419.3,-216 419.3,-216 425.3,-216 431.3,-222 431.3,-228 431.3,-228 431.3,-276 431.3,-276 431.3,-282 425.3,-288 419.3,-288"/>
<text text-anchor="middle" x="336.56" y="-256.2" font-family="Arial" font-size="14.00">ml&#45;autoscaling&#45;sg</text>
<text text-anchor="middle" x="336.56" y="-239.4" font-family="Arial" font-size="14.00">(AWS::EC2::SecurityGroup)</text>
</g>
<!-- EC2&#45;CloudWatch&#45;Role -->
<g id="node5" class="node">
<title>EC2&#45;CloudWatch&#45;Role</title>
<path fill="#e6e6e6" stroke="black" stroke-width="2" d="M705.36,-180C705.36,-180 571.75,-180 571.75,-180 565.75,-180 559.75,-174 559.75,-168 559.75,-168 559.75,-120 559.75,-120 559.75,-114 565.75,-108 571.75,-108 571.75,-108 705.36,-108 705.36,-108 711.36,-108 717.36,-114 717.36,-120 717.36,-120 717.36,-168 717.36,-168 717.36,-174 711.36,-180 705.36,-180"/>
<text text-anchor="middle" x="638.56" y="-148.2" font-family="Arial" font-size="14.00">EC2&#45;CloudWatch&#45;Role</text>
<text text-anchor="middle" x="638.56" y="-131.4" font-family="Arial" font-size="14.00">(AWS::IAM::Role)</text>
</g>
<!-- EC2&#45;CloudWatch&#45;Policy -->
<g id="node6" class="node">
<title>EC2&#45;CloudWatch&#45;Policy</title>
<path fill="#e6e6e6" stroke="black" stroke-width="2" d="M603.64,-288C603.64,-288 461.48,-288 461.48,-288 455.48,-288 449.48,-282 449.48,-276 449.48,-276 449.48,-228 449.48,-228 449.48,-222 455.48,-216 461.48,-216 461.48,-216 603.64,-216 603.64,-216 609.64,-216 615.64,-222 615.64,-228 615.64,-228 615.64,-276 615.64,-276 615.64,-282 609.64,-288 603.64,-288"/>
<text text-anchor="middle" x="532.56" y="-256.2" font-family="Arial" font-size="14.00">EC2&#45;CloudWatch&#45;Policy</text>
<text text-anchor="middle" x="532.56" y="-239.4" font-family="Arial" font-size="14.00">(AWS::IAM::Policy)</text>
</g>
<!-- EC2&#45;CloudWatch&#45;Policy&#45;&gt;EC2&#45;CloudWatch&#45;Role -->
<g id="edge3" class="edge">
<title>EC2&#45;CloudWatch&#45;Policy&#45;&gt;EC2&#45;CloudWatch&#45;Role</title>
<path fill="none" stroke="black" d="M567.85,-215.7C576.7,-206.85 586.3,-197.26 595.48,-188.08"/>
<polygon fill="black" stroke="black" points="597.75,-190.76 602.35,-181.21 592.8,-185.81 597.75,-190.76"/>
</g>
<!-- EC2&#45;CloudWatch&#45;InstanceProfile -->
<g id="node7" class="node">
<title>EC2&#45;CloudWatch&#45;InstanceProfile</title>
<path fill="#e6e6e6" stroke="black" stroke-width="2" d="M843.27,-288C843.27,-288 645.85,-288 645.85,-288 639.85,-288 633.85,-282 633.85,-276 633.85,-276 633.85,-228 633.85,-228 633.85,-222 639.85,-216 645.85,-216 645.85,-216 843.27,-216 843.27,-216 849.27,-216 855.27,-222 855.27,-228 855.27,-228 855.27,-276 855.27,-276 855.27,-282 849.27,-288 843.27,-288"/>
<text text-anchor="middle" x="744.56" y="-256.2" font-family="Arial" font-size="14.00">EC2&#45;CloudWatch&#45;InstanceProfile</text>
<text text-anchor="middle" x="744.56" y="-239.4" font-family="Arial" font-size="14.00">(AWS::IAM::InstanceProfile)</text>
</g>
<!-- EC2&#45;CloudWatch&#45;InstanceProfile&#45;&gt;EC2&#45;CloudWatch&#45;Role -->
<g id="edge4" class="edge">
<title>EC2&#45;CloudWatch&#45;InstanceProfile&#45;&gt;EC2&#45;CloudWatch&#45;Role</title>
<path fill="none" stroke="black" d="M709.26,-215.7C700.41,-206.85 690.82,-197.26 681.63,-188.08"/>
<polygon fill="black" stroke="black" points="684.32,-185.81 674.77,-181.21 679.37,-190.76 684.32,-185.81"/>
</g>
</g>
</svg>
